<?xml version="1.0" encoding="utf-8"?>
<!-- Generator: Adobe Illustrator 28.0.0, SVG Export Plug-In . SVG Version: 6.00 Build 0)  -->
<svg version="1.1" xmlns="http://www.w3.org/2000/svg" xmlns:xlink="http://www.w3.org/1999/xlink" x="0px" y="0px"
	 viewBox="0 0 1549.71 234.67" style="enable-background:new 0 0 1549.71 234.67;" xml:space="preserve">
<style type="text/css">
	.st0{fill:#6890CA;}
	.st1{fill:#FFFFFF;}
</style>
<g id="Camada_2">
</g>
<g id="Camada_1">
	<g>
		<g>
			<g>
				<path class="st0" d="M164.65,152.4H85.89c-12.8,0-22.61-6.84-29.45-20.52c-1.54-3.81-2.32-7.45-2.32-10.92v-3.31
					c0-10.04,5.3-18.86,15.89-26.48c5.63-3.09,10.48-4.63,14.56-4.63h50.3c9.49,0,18.2,5.41,26.15,16.22
					c2.87,6.01,4.3,10.87,4.3,14.56v2.65c-1.05,4.85-3.48,7.28-7.28,7.28H76.62c3.03,4.85,8.55,7.28,16.55,7.28h71.48l0.66,0.66
					v16.55L164.65,152.4z M142.48,111.69v-0.33c-1.32-2.48-3.86-4.36-7.61-5.63c0-0.83-7.06-1.49-21.18-1.99
					c-18.98,0-30.01,1.21-33.1,3.64c-2.43,2.21-3.64,3.64-3.64,4.3H142.48z"/>
				<path class="st0" d="M234.15,152.4l-55.6-21.51V86.54l0.66-0.66h18.86l0.66,0.66v30.45l35.41,13.57l35.41-13.57V86.54l0.66-0.66
					h18.86l0.66,0.66v44.02C289.48,131.11,270.94,138.39,234.15,152.4z"/>
				<path class="st0" d="M382.75,152.4h-48.32c-12.47,0-22.28-6.95-29.45-20.85c-1.32-4.36-1.99-7.89-1.99-10.59v-2.98
					c0-12.46,6.95-22.28,20.85-29.45c4.25-1.32,7.78-1.98,10.59-1.98h48.32c12.47,0,22.28,6.95,29.45,20.85
					c1.32,4.36,1.99,7.89,1.99,10.59v2.98c0,12.47-6.95,22.29-20.85,29.45C389.09,151.74,385.56,152.4,382.75,152.4z M381.75,131.88
					c5.85,0,9.82-3.42,11.91-10.26v-3.64c0-4.63-3.09-8.16-9.27-10.59l-2.65-0.33h-46.33c-5.85,0-9.82,3.42-11.91,10.26v3.64
					c0,4.63,3.09,8.16,9.27,10.59l2.65,0.33H381.75z"/>
				<path class="st0" d="M607.46,152.4l-55.6-21.51V86.54l0.66-0.66h18.87l0.66,0.66v30.45l35.41,13.57l35.41-13.57V86.54l0.66-0.66
					h18.86l0.66,0.66v44.02C662.78,131.11,644.25,138.39,607.46,152.4z"/>
				<path class="st0" d="M786.83,152.4h-78.76c-12.8,0-22.62-6.84-29.46-20.52c-1.55-3.81-2.32-7.45-2.32-10.92v-3.31
					c0-10.04,5.3-18.86,15.89-26.48c5.63-3.09,10.48-4.63,14.56-4.63h50.3c9.49,0,18.2,5.41,26.15,16.22
					c2.87,6.01,4.3,10.87,4.3,14.56v2.65c-1.05,4.85-3.47,7.28-7.28,7.28H698.8c3.03,4.85,8.55,7.28,16.54,7.28h71.49l0.66,0.66
					v16.55L786.83,152.4z M764.66,111.69v-0.33c-1.32-2.48-3.86-4.36-7.61-5.63c0-0.83-7.06-1.49-21.18-1.99
					c-18.97,0-30,1.21-33.09,3.64c-2.42,2.21-3.64,3.64-3.64,4.3H764.66z"/>
			</g>
			<g>
				<path class="st0" d="M427.77,86.18c0,0-0.34,0.34-0.34,0.34c0.01,11.55,0.01,22.55,0,34.1c0.03,1.52,0.15,3.26,0.5,5.17
					c0.33,1.82,0.83,3.74,1.49,5.75c7.06,13.9,16.99,20.85,29.79,20.85h47.66c3.25,0,6.89-0.66,10.92-1.99
					c13.9-7.06,20.85-16.99,20.85-29.78v-0.66l-0.66-0.66h-19.19c-0.44,0-0.66,0.77-0.66,2.32c-2.32,6.84-5.96,10.26-10.92,10.26
					H458.2c-6.84-2.32-10.26-5.96-10.26-10.92V86.48l-0.25-0.3l-0.27-0.3h-19.36L427.77,86.18z"/>
			</g>
		</g>
		<g>
			<path class="st1" d="M921.12,151.99h-78.58l-0.66-0.66v-16.51l0.66-0.66h71.31c7.98,0,13.48-2.42,16.51-7.26h-81.22
				c-4.84-1.04-7.27-3.47-7.27-7.26v-2.64c0-8.92,4.73-17.28,14.2-25.09c6.11-3.69,11.5-5.56,16.18-5.61h79.9l0.66,0.66v16.51
				l-0.66,0.66c-32.36-0.44-51.4-0.66-57.12-0.66c-18.54,0-28.45,2.31-29.71,6.93l-0.66,0.66v0.33h80.89
				c4.84,1.05,7.27,3.36,7.27,6.93v2.31c0,12.44-6.94,22.23-20.8,29.38C928,151.33,924.36,151.99,921.12,151.99z"/>
			<path class="st1" d="M1045.26,151.99h-47.55c-12.77,0-22.67-6.94-29.71-20.8c-1.32-4.01-1.98-7.65-1.98-10.9V76.34l0.66-0.66
				h19.15l0.66,0.66v6.72c0,6,3.63,9.96,10.9,11.89h22.78l0.66,0.66v19.15l-0.66,0.66h-21.46c-3.8,0-7.87-0.77-12.22-2.31v7.52
				c0,4.95,3.41,8.58,10.24,10.89h48.86c4.95,0,8.58-3.41,10.9-10.23c0-1.54,0.22-2.31,0.66-2.31h19.15l0.66,0.66v0.66
				c0,12.77-6.94,22.67-20.8,29.72C1052.14,151.33,1048.51,151.99,1045.26,151.99z"/>
			<path class="st1" d="M1200.45,151.99h-19.15c-0.44,0-0.66-0.77-0.66-2.31c-3.52,1.54-7.26,2.31-11.23,2.31h-47.22
				c-12.99,0-22.89-6.83-29.71-20.47c-1.54-3.8-2.31-7.43-2.31-10.89V86.95l0.66-0.66h19.15l0.66,0.66v33.68
				c0,4.9,3.41,8.53,10.24,10.89h47.88c5.83,0,9.79-3.41,11.88-10.23V86.95l0.66-0.66h19.15l0.66,0.66v64.39L1200.45,151.99z"/>
			<path class="st1" d="M1324.59,151.99h-78.91c-12.49,0-22.29-6.94-29.39-20.8c-1.32-4.01-1.98-7.65-1.98-10.9v-2.64
				c0-10.67,5.5-19.7,16.51-27.07c5.45-2.86,10.73-4.29,15.85-4.29h58.11V59.02l0.66-0.66h19.15l0.66,0.66v92.31L1324.59,151.99z
				 M1304.78,131.52v-24.76h-56.13c-6.82,0-11.22,2.75-13.21,8.25c-0.44,0.88-0.66,2.75-0.66,5.61c0,4.95,3.41,8.58,10.24,10.89
				H1304.78z"/>
			<path class="st1" d="M1357.93,78.83h-18.82l-0.66-0.66V59.02l0.66-0.66h18.82l0.66,0.66v19.15L1357.93,78.83z M1357.93,151.99
				h-18.82l-0.66-0.66V86.95l0.66-0.66h18.82l0.66,0.66v64.39L1357.93,151.99z"/>
			<path class="st1" d="M1451.37,151.99h-48.2c-12.44,0-22.23-6.94-29.39-20.8c-1.32-4.34-1.98-7.87-1.98-10.56v-2.97
				c0-12.44,6.94-22.23,20.8-29.39c4.24-1.32,7.76-1.98,10.57-1.98h48.2c12.44,0,22.23,6.93,29.39,20.8
				c1.32,4.35,1.98,7.87,1.98,10.57v2.97c0,12.44-6.94,22.23-20.8,29.38C1457.7,151.33,1454.18,151.99,1451.37,151.99z
				 M1450.38,131.52c5.83,0,9.79-3.41,11.88-10.23v-3.63c0-4.62-3.08-8.14-9.24-10.57l-2.64-0.33h-46.22
				c-5.84,0-9.8,3.41-11.89,10.24v3.63c0,4.62,3.08,8.14,9.25,10.56l2.64,0.33H1450.38z"/>
		</g>
	</g>
</g>
</svg>
